<svg xmlns="http://www.w3.org/2000/svg" viewBox="0 0 446 538"><path d="M120.2 14.769c-8 2.9-13.5 8.3-18.6 18.4-7.3 14.4-8.5 32.4-3.2 48.1 1.4 4.2 2.6 9.3 2.6 11.2 0 5.1-2.6 10.7-6.7 14.5-2 1.9-4.9 5.2-6.4 7.3-1.6 2.2-4.8 5.1-7.1 6.6-9.9 6.3-24.2 24.8-33.8 43.6-18.5 36.4-30.8 90.9-27.2 120.3 2 15.9 4.8 23.4 14 37.5l4.7 7.2.1 13.5c.1 14.2.6 16.5 5.7 26.6 3.1 6 8.4 13 19 24.6l7.9 8.7-.7 21.8c-1.3 39.2-1.4 36.9 2.2 44.5 4 8.5 11.3 15.9 19.4 19.8 3.4 1.6 7.6 4.2 9.3 5.8 10 9.3 13.8 10.2 45.6 10.8 24.3.5 25.7.6 30 2.9 6.6 3.4 57.5 18.6 64.6 19.2 9.9.9 15.1-3.1 14.1-10.6-.3-2.3.1-4.4.9-5.6 3.2-4.3.4-11.3-7.7-19.5-4.8-4.9-5-5.2-3.4-7 2.2-2.4 2.2-7.3.1-10.6-2.5-3.8-9.8-10.5-14.5-13.4s-5.3-4.4-1.3-3.3c1.5.4 9.9.8 18.7.8 36.9-.1 58.5-9.7 90.9-40.6 14.6-13.9 22.1-23.8 29.4-38.9l5.6-11.5 1.3 4.3c1.5 5.3 1.7 10.6.8 19.8-.9 8.5.7 12.6 6.1 15.1 2.9 1.4 4.2 1.5 7.6.6 4-1.1 4.4-1 7.5 1.8 6.7 5.8 12.9 3.1 18-7.8 1.9-4.1 3.7-9.2 4-11.2.2-2 1.2-5.4 2-7.6 2.3-6 1.9-15.2-1.5-33-6.8-34.9-11.5-67-16.2-108-1.6-14.3-3.6-28.3-4.5-31.2-2.2-7.4-7-13.3-13.5-16.6-4.7-2.5-6.4-2.8-12.2-2.5l-6.7.4-3.8-8.5c-2-4.7-6.6-12.8-10.1-18l-6.3-9.5 4-3.3c5.5-4.6 9.9-12.2 12.2-21.2 4.1-15.8 3.5-62.6-1-80.4-6.1-23.6-21.7-36.1-45-35.8-20.7.2-38.6 10.2-61.9 34.6l-10.3 10.8-9.5-.6c-11.5-.8-14.7-2.1-29-12-6-4.1-13.2-8.6-16-10s-8.5-5-12.5-7.9c-8.8-6.3-20.5-12.2-28.6-14.4-9.4-2.6-22.8-2.8-29.1-.6Zm36.9 35.1c16.1 6.7 19.9 10.9 19.9 21.8 0 6-2.8 12.7-5.7 13.6-26.1 8.2-32.1 7.8-42.2-2.7-6.4-6.7-10-13.2-10.1-17.8 0-4.4 6.3-10.5 15.5-15 9.4-4.6 11.3-4.6 22.6.1Zm167 3c6.9 4.5 9.1 7.3 8.7 11.5-.4 4.7-2 5.1-2.5.6-.7-6.4-6.4-12.3-13.7-14.1l-3.1-.7 3.1-.1c1.8-.1 4.8 1.1 7.5 2.8Zm-24.4 3.8c-4.2 4.1-7.7 10.8-7.7 14.4 0 1.3 1.1 4.7 2.4 7.6 3.2 6.7 6.6 8.5 17.3 9.1 6.8.4 8.9.1 12.5-1.7 2.4-1.1 5.2-3.4 6.2-5.1 1.4-2.5 2.1-2.9 3.2-1.9.7.6 1.2 1.4 1.1 1.8-1 1.8-3.5 7.8-3.9 9-.6 2-7.7 4.5-13.3 4.5-6.1 0-14.7-2.6-20-6.2-6.1-4.2-7.9-8.1-8.3-18.7-.5-10.2.2-11.5 8.1-14.6 6.2-2.5 6.4-2.3 2.4 1.8Zm-22.7 82c17.4 4.6 46.9 17.1 53.7 22.8 16.3 13.6 32.1 53.2 37.2 93 2 15.2 3.5 64.6 2.3 74-2.4 18.2-15.7 49.6-27.1 63.7-7.9 9.8-28.8 28.8-39.7 36-9.7 6.4-21.2 11-34.1 13.4-13.6 2.5-38 1.6-53.8-2.1-9.4-2.1-12.6-2.5-14.7-1.7-1.9.7-2.8.7-2.8 0 0-1.3-15.1-15.5-26.5-25.1-13.4-11.1-19.5-18.6-19.5-24 0-6.3-4.8-11.5-15-16-3-1.3-9.8-5.7-15-9.7-14.8-11.3-21.7-13.3-30.7-8.9-6.7 3.2-12.7 13.1-14.8 24.2-.4 2-1 3.7-1.4 3.7-2.2 0-13.8-14.6-17.8-22.4-2.5-4.8-2.7-5.9-2.5-17.8.3-14.9-.6-18-8.6-30.1-9.6-14.7-12.2-27-10.2-49.8 2.7-31.7 11.3-62.2 25.6-89.9 7-13.7 12-21.2 19.3-29.1l5.9-6.4 3.9 3.7c5.2 5 13.5 8.6 23.1 10 10.2 1.5 17.9.6 60.1-6.7 46.4-8 49.8-8.4 72.1-8.1 18 .3 20.4.5 31 3.3Z"/><path d="M142.3 50.1c-8.3 2-14.8 13-12.4 21 2.8 9.3 8.5 13.7 19.2 14.9 16 1.8 24.8-4.9 24.9-18.7 0-6.6-2.6-9.9-11.3-14.2-7-3.5-14-4.5-20.4-3ZM217.5 144.6c-30 4.2-47.4 8.5-66.5 16.1-21.9 8.7-25.5 11.3-24.3 17.6.6 3.1 3.7 5.7 6.8 5.7 1.1 0 6.6-2 12.1-4.4 29.2-12.9 55.3-19 86.4-20.2 30.5-1.3 51.5 3.4 65.4 14.5 4.7 3.7 7.9 3.9 11.1.6 3.6-3.5 3.3-7.9-.7-11.6-4.1-3.8-13.7-9.5-20.2-12.1-12.7-5-20-6-44.1-6.3-12.6-.2-24.3-.1-26 .1ZM96.2 174.7c-5.5 2.7-11.8 9.6-15.3 16.9-2.9 6.1-3.4 8.1-3.7 17-.5 12.9 1.5 21.4 10.8 44.7 17 43 34 76.5 51.8 102.2 8.2 11.8 19 25.9 25.2 32.9 3 3.3 8.4 9.6 11.8 13.8 7.2 8.9 8.5 9.8 14 9.8 4.8 0 8.6-2.8 10.3-7.4 1.1-3.2 1.4-3.3 5.4-2.8 3.7.4 4.5.1 6.3-2.3 1.2-1.5 2.2-3.8 2.2-5 0-3.7-5.3-15.7-10.3-23.2-2.5-3.8-5-8.1-5.6-9.5-.5-1.4-2.7-5.4-4.8-8.9-5.1-8.3-7.2-13.5-13.4-32.1-6.4-19.5-9.9-26.6-22.7-45.7-5.7-8.6-11.8-18.8-13.7-22.6-4-8.5-9.4-27.1-10-34.8-.5-7.5-2.2-13.3-5.1-18.4-1.3-2.3-2.4-4.9-2.4-5.9 0-2.2-4.5-10.1-7.9-13.7-5.8-6.4-15.8-8.5-22.9-5ZM357.4 411.9c-2.2 1-5.6 3.2-7.5 4.9-1.9 1.6-5 3.6-7 4.5-1.9.8-5.1 2.8-7 4.4s-6.4 5-10 7.5c-6.6 4.7-11.6 10.4-18.4 21.2-10.2 16.1-11.5 25.5-5.2 38.9 6.8 14.3 16.3 21.5 31.3 23.6 7 1 9.5.9 21.1-1.1 5.7-.9 7.3-.7 19 2.3 14.3 3.6 16.8 3.5 21.4-1.1 4-3.9 4.1-10.7.3-14.1-1.4-1.3-3.1-3.1-3.7-3.9-.7-.8-4.3-4.5-8.2-8.3-5.3-5.2-6.4-6.7-4.5-6.2 1.4.4 3.9 2 5.5 3.5 4.7 4.5 7.9 4.8 11.5 1.2 1.6-1.7 3-3.9 3-4.9 0-2.5-4.7-9.7-9.9-15.2-2.2-2.4-4.1-4.5-4.1-4.6 0 0 1.5.1 3.3.3 2.2.2 4.1-.3 5.7-1.6 4.8-3.9 2.6-12.7-5.8-24.4-3-4.3-3.6-6-3.8-10.7-.1-6.6-1.4-9.4-5.2-11.8-1.5-.9-4-2.7-5.5-4-3.6-2.9-10.5-3-16.3-.4Z"/></svg>