<svg width="512" height="512" viewBox="0 0 512 512" fill="none" xmlns="http://www.w3.org/2000/svg">
  <rect width="512" height="512" fill="#FF2D20"/>
  <path d="M256 128C199.727 128 153.6 174.127 153.6 230.4C153.6 256 166.4 281.6 179.2 307.2C192 332.8 204.8 358.4 204.8 384C204.8 410.692 226.108 432 252.8 432H259.2C285.892 432 307.2 410.692 307.2 384C307.2 358.4 320 332.8 332.8 307.2C345.6 281.6 358.4 256 358.4 230.4C358.4 174.127 312.273 128 256 128Z" fill="white"/>
  <path d="M256 179.2C227.988 179.2 204.8 202.388 204.8 230.4C204.8 239.8 212.2 256 219.6 274.8C215.751 267.981 211.891 261.72 208.427 256C199.273 240.718 192 228.073 192 217.6C192 175.366 226.766 140.8 269.287 140.8C311.495 140.8 345.6 174.905 345.6 217.6C345.6 228.073 338.327 240.718 329.173 256C325.709 261.72 321.849 267.981 318 274.8C325.4 256 332.8 239.8 332.8 230.4C332.8 202.388 309.612 179.2 281.6 179.2H256Z" fill="white"/>
</svg>
