<svg xmlns="http://www.w3.org/2000/svg" xmlns:xlink="http://www.w3.org/1999/xlink">
  <symbol id="fa-sharp-solid-bars" viewBox="0 0 640 640">
    <path
      fill="currentColor"
      d="M96 128L544 128L544 192L96 192L96 128zM96 288L544 288L544 352L96 352L96 288zM544 448L544 512L96 512L96 448L544 448z"
    />
  </symbol>

  <symbol id="fa-sharp-solid-close" viewBox="0 0 640 640">
    <path
      fill="currentColor"
      d="M182.9 137.4L160.3 114.7L115 160L137.6 182.6L275 320L137.6 457.4L115 480L160.3 525.3L182.9 502.6L320.3 365.3L457.6 502.6L480.3 525.3L525.5 480L502.9 457.4L365.5 320L502.9 182.6L525.5 160L480.3 114.7L457.6 137.4L320.3 274.7L182.9 137.4z"
    />
  </symbol>
</svg>
